<mxfile host="app.diagrams.net" modified="2024-05-18T08:13:30.072Z" agent="Mozilla/5.0 (Macintosh; Intel Mac OS X 10_15_7) AppleWebKit/605.1.15 (KHTML, like Gecko) Version/17.4.1 Safari/605.1.15" version="22.1.9" etag="gpaDMUGjE7mUkd8UxTAG" type="github">
  <diagram name="Page-1" id="2JtykhPLWBvpJhITrCNo">
    <mxGraphModel>
      <root>
        <mxCell id="0" />
        <mxCell id="1" parent="0" />
      </root>
    </mxGraphModel>
  </diagram>
</mxfile>
